<mxfile host="app.diagrams.net" modified="2023-03-08T11:19:45.460Z" agent="5.0 (Windows)" etag="8fCkbCj_5USNcr1bTUDa" version="21.0.2" type="github">
  <diagram name="Strona-1" id="emDgI9gW2avkbRI0_IEK">
    <mxGraphModel dx="1434" dy="782" grid="1" gridSize="10" guides="1" tooltips="1" connect="1" arrows="1" fold="1" page="1" pageScale="1" pageWidth="827" pageHeight="1169" math="0" shadow="0">
      <root>
        <mxCell id="0" />
        <mxCell id="1" parent="0" />
        <mxCell id="-rmilL7vsyG4Rh_zz-22-1" value="&lt;font style=&quot;font-size: 24px;&quot;&gt;Stop&lt;/font&gt;" style="ellipse;whiteSpace=wrap;html=1;" vertex="1" parent="1">
          <mxGeometry x="130" y="570" width="120" height="80" as="geometry" />
        </mxCell>
        <mxCell id="-rmilL7vsyG4Rh_zz-22-4" style="edgeStyle=orthogonalEdgeStyle;rounded=0;orthogonalLoop=1;jettySize=auto;html=1;entryX=0.5;entryY=0;entryDx=0;entryDy=0;" edge="1" parent="1" source="-rmilL7vsyG4Rh_zz-22-2" target="-rmilL7vsyG4Rh_zz-22-3">
          <mxGeometry relative="1" as="geometry" />
        </mxCell>
        <mxCell id="-rmilL7vsyG4Rh_zz-22-2" value="&lt;font style=&quot;font-size: 24px;&quot;&gt;Start&lt;/font&gt;" style="ellipse;whiteSpace=wrap;html=1;" vertex="1" parent="1">
          <mxGeometry x="354" y="40" width="120" height="80" as="geometry" />
        </mxCell>
        <mxCell id="-rmilL7vsyG4Rh_zz-22-17" style="edgeStyle=orthogonalEdgeStyle;rounded=0;orthogonalLoop=1;jettySize=auto;html=1;entryX=0.5;entryY=0;entryDx=0;entryDy=0;" edge="1" parent="1" source="-rmilL7vsyG4Rh_zz-22-3" target="-rmilL7vsyG4Rh_zz-22-6">
          <mxGeometry relative="1" as="geometry" />
        </mxCell>
        <mxCell id="-rmilL7vsyG4Rh_zz-22-3" value="&lt;br&gt;&lt;div&gt;&lt;font style=&quot;font-size: 24px;&quot;&gt;Pobierz a&lt;br&gt;&lt;/font&gt;&lt;/div&gt;&lt;div&gt;&lt;font style=&quot;font-size: 24px;&quot;&gt;suma = 0 &lt;/font&gt;&lt;br&gt;&lt;/div&gt;" style="rounded=0;whiteSpace=wrap;html=1;" vertex="1" parent="1">
          <mxGeometry x="346" y="160" width="136" height="90" as="geometry" />
        </mxCell>
        <mxCell id="-rmilL7vsyG4Rh_zz-22-20" style="edgeStyle=orthogonalEdgeStyle;rounded=0;orthogonalLoop=1;jettySize=auto;html=1;entryX=1;entryY=0.5;entryDx=0;entryDy=0;" edge="1" parent="1" source="-rmilL7vsyG4Rh_zz-22-6" target="-rmilL7vsyG4Rh_zz-22-19">
          <mxGeometry relative="1" as="geometry" />
        </mxCell>
        <mxCell id="-rmilL7vsyG4Rh_zz-22-23" style="edgeStyle=orthogonalEdgeStyle;rounded=0;orthogonalLoop=1;jettySize=auto;html=1;entryX=0;entryY=0.5;entryDx=0;entryDy=0;" edge="1" parent="1" source="-rmilL7vsyG4Rh_zz-22-6" target="-rmilL7vsyG4Rh_zz-22-22">
          <mxGeometry relative="1" as="geometry" />
        </mxCell>
        <mxCell id="-rmilL7vsyG4Rh_zz-22-6" value="a=0" style="rhombus;whiteSpace=wrap;html=1;" vertex="1" parent="1">
          <mxGeometry x="374" y="330" width="80" height="80" as="geometry" />
        </mxCell>
        <mxCell id="-rmilL7vsyG4Rh_zz-22-18" value="Nie" style="text;html=1;strokeColor=none;fillColor=none;align=center;verticalAlign=middle;whiteSpace=wrap;rounded=0;" vertex="1" parent="1">
          <mxGeometry x="286" y="320" width="60" height="30" as="geometry" />
        </mxCell>
        <mxCell id="-rmilL7vsyG4Rh_zz-22-26" style="edgeStyle=orthogonalEdgeStyle;rounded=0;orthogonalLoop=1;jettySize=auto;html=1;entryX=0.5;entryY=0;entryDx=0;entryDy=0;" edge="1" parent="1" source="-rmilL7vsyG4Rh_zz-22-19" target="-rmilL7vsyG4Rh_zz-22-1">
          <mxGeometry relative="1" as="geometry" />
        </mxCell>
        <mxCell id="-rmilL7vsyG4Rh_zz-22-19" value="Wyświetl sumę" style="rounded=0;whiteSpace=wrap;html=1;" vertex="1" parent="1">
          <mxGeometry x="130" y="340" width="120" height="60" as="geometry" />
        </mxCell>
        <mxCell id="-rmilL7vsyG4Rh_zz-22-21" value="Tak" style="text;html=1;strokeColor=none;fillColor=none;align=center;verticalAlign=middle;whiteSpace=wrap;rounded=0;" vertex="1" parent="1">
          <mxGeometry x="482" y="320" width="60" height="30" as="geometry" />
        </mxCell>
        <mxCell id="-rmilL7vsyG4Rh_zz-22-24" style="edgeStyle=orthogonalEdgeStyle;rounded=0;orthogonalLoop=1;jettySize=auto;html=1;entryX=0.5;entryY=0;entryDx=0;entryDy=0;" edge="1" parent="1" source="-rmilL7vsyG4Rh_zz-22-22" target="-rmilL7vsyG4Rh_zz-22-3">
          <mxGeometry relative="1" as="geometry">
            <Array as="points">
              <mxPoint x="630" y="140" />
              <mxPoint x="414" y="140" />
            </Array>
          </mxGeometry>
        </mxCell>
        <mxCell id="-rmilL7vsyG4Rh_zz-22-22" value="0 + a" style="rounded=0;whiteSpace=wrap;html=1;" vertex="1" parent="1">
          <mxGeometry x="570" y="340" width="120" height="60" as="geometry" />
        </mxCell>
      </root>
    </mxGraphModel>
  </diagram>
</mxfile>
